<svg width="61" height="76" viewBox="0 0 61 76" fill="none" xmlns="http://www.w3.org/2000/svg">
<path d="M8.93398 8.7173C20.8461 -2.90577 40.1572 -2.90577 52.0664 8.7173C63.4015 19.7772 64.0277 37.5103 53.5006 49.3051L30.4988 75.0769L7.49689 49.3051C-3.02724 37.5075 -2.40104 19.7744 8.93398 8.7173ZM30.5017 48.2014C41.2682 48.2014 49.9945 39.6868 49.9945 29.1816C49.9945 18.6763 41.2682 10.1617 30.5017 10.1617C19.7351 10.1617 11.0088 18.6763 11.0088 29.1816C11.0088 39.6868 19.7351 48.2014 30.5017 48.2014Z" fill="#FF0000"/>
<circle cx="30.5" cy="30.5" r="25.8077" fill="#FF0000"/>
<path d="M51.6154 30.5C51.6154 18.8394 42.1606 9.38462 30.5 9.38462C18.8394 9.38462 9.38461 18.8394 9.38461 30.5C9.38461 42.1606 18.8329 51.6154 30.5 51.6154C42.1606 51.6154 51.6154 42.1606 51.6154 30.5ZM45.4207 26.6023L38.3605 33.5843L40.189 44.0151L30.6366 39.4993L21.5138 44.0151L23.2056 34.1505L15.5923 26.4136L25.8865 25.0341L30.6627 15.6314L35.8032 24.7803L45.4207 26.6023Z" fill="white"/>
</svg>
